<?xml version="1.0" encoding="UTF-8"?>
<svg version="1.1" xmlns="http://www.w3.org/2000/svg" width="600" height="600">
<path d="M0 0 C198 0 396 0 600 0 C600 198 600 396 600 600 C402 600 204 600 0 600 C0 402 0 204 0 0 Z " fill="#FF9900" transform="translate(0,0)"/>
<path d="M0 0 C0 25.41 0 50.82 0 77 C-7.425 77.99 -7.425 77.99 -15 79 C-26.08141764 82.87311684 -34.64234958 87.21936197 -40 98 C-42.21772413 103.2116517 -42.33241421 106.99172791 -43 113 C-28.81 113 -14.62 113 0 113 C0 135.11 0 157.22 0 180 C-14.19 180 -28.38 180 -43 180 C-43 199.47 -43 218.94 -43 239 C-72.37 239 -101.74 239 -132 239 C-132 219.53 -132 200.06 -132 180 C-141.9 180 -151.8 180 -162 180 C-162 157.89 -162 135.78 -162 113 C-152.1 113 -142.2 113 -132 113 C-132 109.04 -132 105.08 -132 101 C-130.22190781 73.56219806 -118.38488517 48.6508323 -98.09448242 30.24853516 C-70.59097363 6.29734647 -35.38195066 0 0 0 Z " fill="#FFFEFE" transform="translate(381,102)"/>
<path d="M0 0 C29.37 0 58.74 0 89 0 C89 45.87 89 91.74 89 139 C59.63 139 30.26 139 0 139 C0 93.13 0 47.26 0 0 Z " fill="#FFFEFE" transform="translate(249,359)"/>
</svg>
